<?xml version="1.0" encoding="UTF-8" standalone="no"?>
<!DOCTYPE svg PUBLIC "-//W3C//DTD SVG 1.1//EN" "http://www.w3.org/Graphics/SVG/1.1/DTD/svg11.dtd">
<svg width="100%" height="100%" viewBox="0 0 100 100" version="1.1" xmlns="http://www.w3.org/2000/svg" xmlns:xlink="http://www.w3.org/1999/xlink" xml:space="preserve" xmlns:serif="http://www.serif.com/" style="fill-rule:evenodd;clip-rule:evenodd;stroke-linecap:round;stroke-linejoin:round;stroke-miterlimit:2;">
    <circle cx="50" cy="50" r="50" style="fill:#fff;"/>
    <g id="FUCLASSICS_logo_DORIC" transform="matrix(0.19,0,0,0.19,50,50)">
        <g transform="matrix(1,0,0,1,-250,-250)">
            <clipPath id="_clip1">
                <rect x="0" y="0" width="500" height="500"/>
            </clipPath>
            <g clip-path="url(#_clip1)">
                <g>
                    <g>
                        <clipPath id="_clip2">
                            <path d="M250,0.08C387.979,0.08 500,112.101 500,250.08C500,388.059 387.979,500.08 250,500.08C112.021,500.08 0,388.059 0,250.08C0,112.101 112.021,0.08 250,0.08Z"/>
                        </clipPath>
                        <g clip-path="url(#_clip2)">
                            <path d="M334.72,211.4L338.687,487.306M306.16,211.4L307.84,499.34M271.12,211.4L271.36,503.92M352.24,211.4L356.08,482.316M166,211.4L162.033,487.306M194.56,211.4L192.88,499.34M229.6,211.4L229.36,503.92M148.48,211.4L144.64,482.316" style="fill:#4e2984;"/>
                            <path d="M334.72,211.4L338.687,487.306M306.16,211.4L307.84,499.34M271.12,211.4L271.36,503.92M352.24,211.4L356.08,482.316M166,211.4L162.033,487.306M194.56,211.4L192.88,499.34M229.6,211.4L229.36,503.92M148.48,211.4L144.64,482.316" style="fill:none;stroke:#4e2984;stroke-width:5px;"/>
                        </g>
                    </g>
                    <path d="M133.05,471.055C53.934,429.062 0,345.82 0,250.08C0,112.101 112.021,0.08 250,0.08C387.979,0.08 500,112.101 500,250.08C500,346.454 445.35,430.164 365.375,471.884L358.72,211.424L138.4,211.424L133.05,471.055ZM398.8,174.2L103.6,174.2L138.16,206.6L359.2,206.6L398.8,174.2ZM401.44,116.84L100.96,116.84L100.96,168.92L401.44,168.92L401.44,116.84Z" style="fill:#4e2984;"/>
                </g>
            </g>
        </g>
    </g>
</svg>
