<?xml version="1.0" encoding="UTF-8" standalone="no"?>
<!DOCTYPE svg PUBLIC "-//W3C//DTD SVG 1.1//EN" "http://www.w3.org/Graphics/SVG/1.1/DTD/svg11.dtd">
<svg width="100%" height="100%" viewBox="0 0 480 480" version="1.1" xmlns="http://www.w3.org/2000/svg" xmlns:xlink="http://www.w3.org/1999/xlink" xml:space="preserve" xmlns:serif="http://www.serif.com/" style="fill-rule:evenodd;clip-rule:evenodd;stroke-linejoin:round;stroke-miterlimit:2;">
    <circle cx="240" cy="240" r="240" style="fill:rgb(78,41,132);"/>
    <path d="M240,0C372.46,0 480,107.54 480,240C480,372.46 372.46,480 240,480C107.54,480 0,372.46 0,240C0,107.54 107.54,0 240,0ZM240,16.667C363.261,16.667 463.333,116.739 463.333,240C463.333,363.261 363.261,463.333 240,463.333C116.739,463.333 16.667,363.261 16.667,240C16.667,116.739 116.739,16.667 240,16.667Z" style="fill:white;"/>
    <rect x="95.52" y="112.32" width="288.96" height="49.92" style="fill:white;"/>
    <g transform="matrix(1,0,0,1,0,1)">
        <path d="M381.12,167.04L98.88,167.04L134.88,197.76L346.12,197.76L381.12,167.04Z" style="fill:white;"/>
        <path d="M381.12,167.04L98.88,167.04L134.88,197.76L346.12,197.76L381.12,167.04Z" style="fill:white;"/>
    </g>
    <g transform="matrix(1,0,0,1,-3,1)">
        <path d="M157.631,203.52L136.682,203.52L131.921,447L154.631,448L157.631,203.52Z" style="fill:white;"/>
    </g>
    <g transform="matrix(-1,0,0,1,482.952,1)">
        <path d="M157.631,203.52L136.682,203.52L131.921,447L154.631,448L157.631,203.52Z" style="fill:white;"/>
    </g>
    <g transform="matrix(1,0,0,3.82096,-1.13687e-13,-573.121)">
        <rect x="210.481" y="203.52" width="59.039" height="69.48" style="fill:white;"/>
    </g>
    <g transform="matrix(1,0,0,1,-2,1)">
        <path d="M206.195,203.52L162,203.52L159.536,459L206.195,461L206.195,203.52Z" style="fill:white;"/>
    </g>
    <g transform="matrix(-1,0,0,1,481.731,1)">
        <path d="M206.195,203.52L162,203.52L159.536,459L206.195,461L206.195,203.52Z" style="fill:white;"/>
    </g>
</svg>
